<svg width="330" height="289" viewBox="0 0 330 289" fill="none" xmlns="http://www.w3.org/2000/svg">
<path fill-rule="evenodd" clip-rule="evenodd" d="M221 0L169 -2.27299e-06V33L221 33V92.5C221 99.7884 219.564 107.005 216.775 113.739C213.986 120.472 209.898 126.591 204.744 131.744C199.591 136.898 193.472 140.986 186.739 143.775C180.005 146.564 172.788 148 165.5 148C158.212 148 150.995 146.564 144.261 143.775C137.527 140.986 131.409 136.898 126.256 131.744C121.102 126.591 117.014 120.472 114.225 113.739C111.436 107.005 110 99.7884 110 92.5H77C77 104.122 79.2891 115.63 83.7367 126.367C88.1842 137.105 94.7031 146.861 102.921 155.079C111.139 163.297 120.895 169.816 131.633 174.263C142.37 178.711 153.878 181 165.5 181C177.122 181 188.63 178.711 199.367 174.263C210.105 169.816 219.861 163.297 228.079 155.079C236.297 146.861 242.816 137.105 247.263 126.367C251.647 115.784 253.934 104.452 253.999 93H254V92.5V0H221Z" fill="#212121"/>
<path fill-rule="evenodd" clip-rule="evenodd" d="M176 90.1713C176 86.9523 173.39 84.3428 170.171 84.3428L133.829 84.3428C130.61 84.3428 128 86.9523 128 90.1713C128 93.3904 130.61 95.9999 133.829 95.9999L170.171 95.9999C173.39 95.9999 176 93.3904 176 90.1713Z" fill="#1BA351"/>
<path fill-rule="evenodd" clip-rule="evenodd" d="M170.172 48C166.953 48 164.344 50.6095 164.344 53.8286L164.344 90.1714C164.344 93.3905 166.953 96 170.172 96C173.391 96 176.001 93.3905 176.001 90.1714L176.001 53.8286C176.001 50.6096 173.391 48 170.172 48Z" fill="#1BA351"/>
<rect width="11.6571" height="11.6571" transform="matrix(-4.37114e-08 -1 -1 4.37114e-08 176 96)" fill="#1BA351"/>
<path fill-rule="evenodd" clip-rule="evenodd" d="M45.5593 229.564L29.1073 229.564V240.005L45.5593 240.005V258.853C45.5563 261.151 45.1022 263.426 44.2227 265.55C43.3403 267.68 42.0468 269.616 40.4163 271.246C38.7858 272.877 36.8501 274.17 34.7197 275.053C32.5893 275.935 30.3059 276.389 28 276.389C25.6941 276.389 23.4107 275.935 21.2803 275.053C19.1499 274.17 17.2142 272.877 15.5837 271.246C13.9531 269.616 12.6597 267.68 11.7773 265.55C10.8949 263.419 10.4407 261.136 10.4407 258.83H0C0 262.507 0.724241 266.148 2.13137 269.545C3.5385 272.942 5.60097 276.029 8.20101 278.629C10.801 281.229 13.8877 283.292 17.2849 284.699C20.682 286.106 24.323 286.83 28 286.83C31.677 286.83 35.318 286.106 38.7151 284.699C42.1123 283.292 45.1989 281.229 47.799 278.629C50.399 276.029 52.4615 272.942 53.8686 269.545C55.2556 266.197 55.9791 262.611 55.9995 258.988H56V258.859L56 258.83L56 229.564H45.5593Z" fill="#212121"/>
<path d="M67.7344 259.369C67.7344 253.704 68.9001 248.688 71.2314 244.32C73.6313 239.952 76.8541 236.573 80.8997 234.184C85.0138 231.727 89.5394 230.499 94.4763 230.499C98.9333 230.499 102.807 231.386 106.099 233.161C109.459 234.867 112.133 237.017 114.121 239.61V231.42H125.95V287.829H114.121V279.434C112.133 282.096 109.424 284.314 105.996 286.089C102.568 287.863 98.6591 288.751 94.2706 288.751C89.4022 288.751 84.9452 287.522 80.8997 285.065C76.8541 282.54 73.6313 279.059 71.2314 274.623C68.9001 270.118 67.7344 265.034 67.7344 259.369ZM114.121 259.574C114.121 255.683 113.299 252.305 111.653 249.438C110.076 246.572 107.984 244.388 105.379 242.886C102.773 241.385 99.9619 240.634 96.9448 240.634C93.9278 240.634 91.1165 241.385 88.5108 242.886C85.9052 244.32 83.7796 246.469 82.1339 249.336C80.5568 252.134 79.7683 255.479 79.7683 259.369C79.7683 263.259 80.5568 266.672 82.1339 269.606C83.7796 272.541 85.9052 274.793 88.5108 276.363C91.185 277.865 93.9964 278.615 96.9448 278.615C99.9619 278.615 102.773 277.865 105.379 276.363C107.984 274.862 110.076 272.678 111.653 269.811C113.299 266.876 114.121 263.464 114.121 259.574Z" fill="#121212"/>
<path d="M153.076 239.61C154.79 236.744 157.053 234.526 159.864 232.956C162.744 231.318 166.138 230.499 170.047 230.499V242.579H167.064C162.47 242.579 158.973 243.739 156.573 246.06C154.241 248.38 153.076 252.407 153.076 258.14V287.829H141.35V231.42H153.076V239.61Z" fill="#121212"/>
<path d="M202.732 277.387L218.777 231.42H231.223L209.624 287.829H195.635L174.139 231.42H186.687L202.732 277.387Z" fill="#121212"/>
<path d="M246.051 223.947C243.926 223.947 242.143 223.23 240.703 221.797C239.263 220.364 238.543 218.589 238.543 216.473C238.543 214.358 239.263 212.583 240.703 211.15C242.143 209.717 243.926 209 246.051 209C248.108 209 249.857 209.717 251.297 211.15C252.737 212.583 253.457 214.358 253.457 216.473C253.457 218.589 252.737 220.364 251.297 221.797C249.857 223.23 248.108 223.947 246.051 223.947ZM251.811 231.42V287.829H240.086V231.42H251.811Z" fill="#121212"/>
<path d="M287.776 288.751C283.319 288.751 279.308 287.966 275.742 286.396C272.245 284.758 269.468 282.574 267.411 279.844C265.354 277.046 264.257 273.94 264.12 270.528H276.257C276.462 272.917 277.594 274.93 279.651 276.568C281.776 278.138 284.416 278.923 287.571 278.923C290.862 278.923 293.399 278.308 295.182 277.08C297.033 275.783 297.959 274.145 297.959 272.166C297.959 270.05 296.93 268.48 294.873 267.456C292.885 266.433 289.696 265.307 285.308 264.078C281.056 262.918 277.594 261.792 274.92 260.7C272.245 259.608 269.914 257.936 267.926 255.683C266.006 253.431 265.046 250.462 265.046 246.777C265.046 243.774 265.937 241.044 267.72 238.587C269.503 236.061 272.04 234.082 275.331 232.649C278.691 231.216 282.531 230.499 286.851 230.499C293.296 230.499 298.473 232.137 302.382 235.413C306.359 238.621 308.484 243.023 308.758 248.619H297.033C296.827 246.094 295.799 244.081 293.947 242.579C292.096 241.078 289.593 240.327 286.439 240.327C283.354 240.327 280.988 240.907 279.342 242.067C277.697 243.228 276.874 244.763 276.874 246.674C276.874 248.176 277.422 249.438 278.519 250.462C279.617 251.486 280.954 252.305 282.531 252.919C284.108 253.465 286.439 254.182 289.525 255.069C293.639 256.161 296.999 257.287 299.604 258.447C302.279 259.539 304.576 261.177 306.496 263.361C308.416 265.545 309.41 268.446 309.478 272.063C309.478 275.271 308.587 278.138 306.804 280.663C305.021 283.188 302.484 285.167 299.193 286.601C295.97 288.034 292.165 288.751 287.776 288.751Z" fill="#121212"/>
<circle cx="323.637" cy="282.387" r="6.36308" fill="#1BA351"/>
</svg>
