<?xml version="1.0" standalone="no"?>
<!DOCTYPE svg PUBLIC "-//W3C//DTD SVG 1.0//EN" "http://www.w3.org/TR/2001/REC-SVG-20010904/DTD/svg10.dtd">
<svg xmlns="http://www.w3.org/2000/svg" xmlns:xlink="http://www.w3.org/1999/xlink" id="body_1" width="92" height="110">

<defs>
        <clipPath  id="1">

            <path clip-rule="evenodd" d="M0 0L92 0L92 110L0 110z" />        </clipPath>
</defs>

<g transform="matrix(1 0 0 1 0 0)">
	<g clip-path="url(#1)" >
        <path d="M0.657955 52.6115C 0.995995 53.1718 1.4537 53.6517 1.99885 54.0175C 2.54399 54.3832 3.1633 54.6259 3.81316 54.7284C 4.46302 54.8308 5.12761 54.7907 5.76014 54.6107C 6.39267 54.4307 6.97774 54.1153 7.47414 53.6866L7.47414 53.6866L21.3491 61.5844L20.8319 53.3512L7.73537 47.1136C 6.95447 46.3337 5.91244 45.8651 4.80673 45.7968C 3.70103 45.7284 2.60847 46.065 1.73608 46.7427C 0.863702 47.4204 0.272105 48.3921 0.0733988 49.4738C -0.125307 50.5554 0.0826825 51.6719 0.657955 52.6115z" stroke="none" fill="#FFB8B8" fill-rule="nonzero" />
        <path d="M40.8266 84.2502C 36.7109 89.9672 36.8581 99.532 38.0064 110L38.0064 110L57.4658 110L58.3119 108.041L59.44 110L77.7713 110C 77.7713 110 76.3612 83.4105 73.823 82.5708C 71.2848 81.7311 40.8266 84.2502 40.8266 84.2502z" stroke="none" fill="#2F2E41" fill-rule="nonzero" />
        <path d="M57.4664 24.5184C 62.9179 24.5184 67.3372 20.1324 67.3372 14.7221C 67.3372 9.31173 62.9179 4.92578 57.4664 4.92578C 52.015 4.92578 47.5957 9.31173 47.5957 14.7221C 47.5957 20.1324 52.015 24.5184 57.4664 24.5184z" stroke="none" fill="#FFB8B8" fill-rule="nonzero" />
        <path d="M64.6001 27.0596L66.5304 30.7314L79.8814 36.6381L76.3719 70.3445L74.8949 73.8349L75.6929 76.8661L73.7689 79.1031C 75.7002 80.8375 75.9455 82.653 74.8949 84.531L74.8949 84.531L68.7467 85.9287C 68.7467 85.9287 34.5614 88.9456 37.4424 83.6896C 40.5903 77.9466 41.3919 60.986 34.4426 51.9226C 28.5428 44.228 33.0723 34.2435 33.0723 34.2435L33.0723 34.2435L47.0668 30.0928L52.2142 27.0596L64.6001 27.0596z" stroke="none" fill="#3F3D56" fill-rule="nonzero" />
        <path d="M61.8481 0.371988C 61.8945 0.274587 61.9692 0.193169 62.0625 0.13819C 62.1559 0.0832105 62.2637 0.0571799 62.372 0.0634423C 57.853 -0.204833 53.0931 0.317897 49.3125 2.78939C 48.3966 3.38816 47.5331 4.10234 46.5364 4.53669C 46.4893 4.55767 46.4486 4.59037 46.418 4.63161C 46.3875 4.67285 46.3682 4.72122 46.362 4.77204C 46.3559 4.82286 46.3631 4.87439 46.3829 4.92163C 46.4028 4.96887 46.4346 5.01021 46.4753 5.04165L46.4753 5.04165L46.5848 5.12684C 46.628 5.16046 46.661 5.20518 46.6804 5.25615C 46.6998 5.30712 46.7047 5.36239 46.6946 5.41594C 46.6845 5.46948 46.6599 5.51927 46.6233 5.55987C 46.5867 5.60047 46.5396 5.63033 46.4871 5.64622C 46.4323 5.66277 46.3835 5.69451 46.3463 5.73769C 46.3092 5.78086 46.2852 5.83368 46.2773 5.88991C 46.2694 5.94615 46.2778 6.00346 46.3016 6.0551C 46.3254 6.10674 46.3636 6.15055 46.4117 6.18137L46.4117 6.18137L47.2506 6.71948C 47.2928 6.7461 47.3276 6.78283 47.3519 6.8263C 47.3761 6.86976 47.3889 6.91857 47.3892 6.96824C 47.3895 7.01791 47.3772 7.06685 47.3534 7.11057C 47.3297 7.1543 47.2953 7.1914 47.2533 7.21848C 47.1822 7.26204 47.1076 7.29959 47.0302 7.33074C 46.9821 7.34869 46.9394 7.37866 46.9063 7.41774C 46.8732 7.45683 46.8508 7.50372 46.8412 7.55389C 46.8317 7.60406 46.8353 7.65583 46.8518 7.70419C 46.8683 7.75256 46.8971 7.7959 46.9353 7.83003C 47.2986 8.151 47.5773 8.55529 47.747 9.00765C 48.0266 9.7292 48.0768 10.515 48.1241 11.2867C 48.413 10.1733 49.6374 9.51788 50.7939 9.45128C 51.9504 9.38468 53.0784 9.7634 54.2039 10.0356C 56.6554 10.6269 59.2015 10.7241 61.6915 10.3215C 60.8459 12.0055 61.5591 14.0142 62.2769 15.7557L62.2769 15.7557L64.6001 14.7674C 67.7908 12.9799 65.5683 20.5414 64.3755 21.5794C 66.8111 22.4174 73.1859 13.1161 71.1352 9.58794C 70.0684 7.75262 70.8256 5.38551 68.7283 3.64484C 67.7004 2.5709 65.6481 3.04823 64.6001 2.15565C 64.1877 1.80435 64.8164 0.864493 64.2495 0.659667C 64.0613 0.591635 61.8793 0.303421 61.8481 0.371988z" stroke="none" fill="#2F2E41" fill-rule="nonzero" />
        <path d="M45.1286 31.041C 43.3174 39.0216 38.6718 57.6551 33.9587 61.552C 33.6599 61.8321 33.3015 62.0421 32.91 62.1666C 16.3434 66.172 11.0352 55.9549 11.0352 55.9549C 11.0352 55.9549 15.4748 53.8077 15.5874 49.6107L15.5874 49.6107L24.5406 52.3677L32.3454 34.9363L33.4939 33.8731L33.5003 33.8667L45.1286 31.041z" stroke="none" fill="#3F3D56" fill-rule="nonzero" />
        <path d="M80.4511 104.738C 80.9255 104.285 81.2941 103.735 81.531 103.126C 81.7679 102.517 81.8674 101.863 81.8223 101.212C 81.7772 100.56 81.5888 99.9263 81.2702 99.3549C 80.9517 98.7835 80.5107 98.2883 79.9785 97.9043L79.9785 97.9043L84.6227 82.7139L76.6541 85.06L73.4656 99.1255C 72.8749 100.056 72.6484 101.168 72.8292 102.253C 73.01 103.338 73.5855 104.319 74.4465 105.011C 75.3076 105.703 76.3944 106.057 77.5011 106.007C 78.6078 105.956 79.6575 105.505 80.4511 104.738z" stroke="none" fill="#FFB8B8" fill-rule="nonzero" />
        <path d="M76.2005 35.7891L79.8815 36.6389C 79.8815 36.6389 95.0959 66.0176 91.4297 71.6155C 87.7634 77.2134 83.2719 95.7465 83.2719 95.7465C 83.2719 95.7465 76.6289 94.4359 74.0907 91.0771L74.0907 91.0771L78.7387 69.0965L73.9443 50.6235L76.2005 35.7891z" stroke="none" fill="#3F3D56" fill-rule="nonzero" />
        <path d="M6.36622 79.4156L6.49839 32.0993C 6.50216 31.1416 6.88854 30.2245 7.57276 29.5492C 8.25698 28.8739 9.18317 28.4955 10.1481 28.4971L10.1481 28.4971L46.154 28.5961C 47.1189 28.5999 48.043 28.9834 48.7234 29.6624C 49.4039 30.3415 49.7851 31.2607 49.7835 32.2184L49.7835 32.2184L49.6513 79.5347C 49.6476 80.4923 49.2612 81.4094 48.577 82.0847C 47.8928 82.7601 46.9666 83.1384 46.0016 83.1369L46.0016 83.1369L9.99577 83.0378C 9.03081 83.034 8.10675 82.6506 7.42631 81.9715C 6.74588 81.2925 6.36463 80.3733 6.36622 79.4156z" stroke="none" fill="#E6E6E6" fill-rule="nonzero" />
        <path d="M9 76.7309L9.11569 35.1644C 9.11899 34.3231 9.45715 33.5175 10.056 32.9243C 10.6549 32.331 11.4655 31.9986 12.31 32L12.31 32L43.8233 32.087C 44.6679 32.0903 45.4767 32.4272 46.0722 33.0237C 46.6677 33.6203 47.0014 34.4278 47 35.2691L47 35.2691L46.8843 76.8355C 46.881 77.6768 46.5429 78.4825 45.944 79.0757C 45.3452 79.669 44.5345 80.0014 43.69 80L43.69 80L12.1767 79.913C 11.3321 79.9097 10.5234 79.5728 9.92783 78.9763C 9.33229 78.3797 8.99862 77.5722 9 76.7309z" stroke="none" fill="#FFFFFF" fill-rule="nonzero" />
        <path d="M25.8342 17.4816C 27.3444 17.4816 28.5687 16.2665 28.5687 14.7676C 28.5687 13.2688 27.3444 12.0537 25.8342 12.0537C 24.3239 12.0537 23.0996 13.2688 23.0996 14.7676C 23.0996 16.2665 24.3239 17.4816 25.8342 17.4816z" stroke="none" fill="#F2F2F2" fill-rule="nonzero" />
        <path d="M15.8605 95.547C 17.3708 95.547 18.5951 94.3319 18.5951 92.8331C 18.5951 91.3342 17.3708 90.1191 15.8605 90.1191C 14.3503 90.1191 13.126 91.3342 13.126 92.8331C 13.126 94.3319 14.3503 95.547 15.8605 95.547z" stroke="none" fill="#F2F2F2" fill-rule="nonzero" />
        <path d="M78.756 28.0177C 80.2663 28.0177 81.4906 26.8026 81.4906 25.3038C 81.4906 23.8049 80.2663 22.5898 78.756 22.5898C 77.2458 22.5898 76.0215 23.8049 76.0215 25.3038C 76.0215 26.8026 77.2458 28.0177 78.756 28.0177z" stroke="none" fill="#F2F2F2" fill-rule="nonzero" />
        <path d="M12 39C 12 37.89543 12.895431 37 14 37L14 37L42 37C 43.10457 37 44 37.89543 44 39L44 39L44 51C 44 52.10457 43.10457 53 42 53L42 53L14 53C 12.895431 53 12 52.10457 12 51L12 51L12 39z" stroke="none" fill="#F2F4F7" fill-rule="nonzero" />
        <path d="M12 58C 12 56.89543 12.895431 56 14 56L14 56L42 56C 43.10457 56 44 56.89543 44 58L44 58L44 70C 44 71.10457 43.10457 72 42 72L42 72L14 72C 12.895431 72 12 71.10457 12 70L12 70L12 58z" stroke="none" fill="#F2F4F7" fill-rule="nonzero" />
        <path d="M14 41C 14 39.89543 14.895431 39 16 39L16 39L24 39C 25.10457 39 26 39.89543 26 41L26 41L26 49C 26 50.10457 25.10457 51 24 51L24 51L16 51C 14.895431 51 14 50.10457 14 49L14 49L14 41z" stroke="none" fill="#9DA3B6" fill-rule="nonzero" />
        <path d="M14 60C 14 58.89543 14.895431 58 16 58L16 58L24 58C 25.10457 58 26 58.89543 26 60L26 60L26 68C 26 69.10457 25.10457 70 24 70L24 70L16 70C 14.895431 70 14 69.10457 14 68L14 68L14 60z" stroke="none" fill="#9DA3B6" fill-rule="nonzero" />
        <path d="M28 41.5C 28 41.223858 28.223858 41 28.5 41L28.5 41L41.5 41C 41.776142 41 42 41.223858 42 41.5C 42 41.776142 41.776142 42 41.5 42L41.5 42L28.5 42C 28.223858 42 28 41.776142 28 41.5z" stroke="none" fill="#2F2E41" fill-rule="nonzero" />
        <path d="M28 60.5C 28 60.223858 28.223858 60 28.5 60L28.5 60L41.5 60C 41.776142 60 42 60.223858 42 60.5C 42 60.776142 41.776142 61 41.5 61L41.5 61L28.5 61C 28.223858 61 28 60.776142 28 60.5z" stroke="none" fill="#2F2E41" fill-rule="nonzero" />
        <path d="M28 44.5C 28 44.2239 28.2239 44 28.5 44L28.5 44L37.5 44C 37.7761 44 38 44.2239 38 44.5C 38 44.7761 37.7761 45 37.5 45L37.5 45L28.5 45C 28.2239 45 28 44.7761 28 44.5z" stroke="none" fill="#2F2E41" fill-rule="nonzero" />
        <path d="M28 63.5C 28 63.2239 28.2239 63 28.5 63L28.5 63L37.5 63C 37.7761 63 38 63.2239 38 63.5C 38 63.7761 37.7761 64 37.5 64L37.5 64L28.5 64C 28.2239 64 28 63.7761 28 63.5z" stroke="none" fill="#2F2E41" fill-rule="nonzero" />
        <path d="M28 47.5C 28 47.223858 28.223858 47 28.5 47L28.5 47L34.5 47C 34.776142 47 35 47.223858 35 47.5C 35 47.776142 34.776142 48 34.5 48L34.5 48L28.5 48C 28.223858 48 28 47.776142 28 47.5z" stroke="none" fill="#3F3D56" fill-rule="nonzero" />
        <path d="M28 66.5C 28 66.223854 28.223858 66 28.5 66L28.5 66L34.5 66C 34.776142 66 35 66.223854 35 66.5C 35 66.776146 34.776142 67 34.5 67L34.5 67L28.5 67C 28.223858 67 28 66.776146 28 66.5z" stroke="none" fill="#3F3D56" fill-rule="nonzero" />
	</g>
</g>
</svg>