<svg width="92" height="110" viewBox="0 0 92 110" fill="none" xmlns="http://www.w3.org/2000/svg">
<g clip-path="url(#clip0_4813_5495)">
<path d="M0.657955 52.6115C0.995995 53.1718 1.4537 53.6517 1.99885 54.0175C2.54399 54.3832 3.1633 54.6259 3.81316 54.7284C4.46302 54.8308 5.12761 54.7907 5.76014 54.6107C6.39267 54.4307 6.97774 54.1153 7.47414 53.6866L21.3491 61.5844L20.8319 53.3512L7.73537 47.1136C6.95447 46.3337 5.91244 45.8651 4.80673 45.7968C3.70103 45.7284 2.60847 46.065 1.73608 46.7427C0.863702 47.4204 0.272105 48.3921 0.0733988 49.4738C-0.125307 50.5554 0.0826825 51.6719 0.657955 52.6115Z" fill="#FFB8B8"/>
<path d="M40.8266 84.2502C36.7109 89.9672 36.8581 99.532 38.0064 110H57.4658L58.3119 108.041L59.44 110H77.7713C77.7713 110 76.3612 83.4105 73.823 82.5708C71.2848 81.7311 40.8266 84.2502 40.8266 84.2502Z" fill="#2F2E41"/>
<path d="M57.4664 24.5184C62.9179 24.5184 67.3372 20.1324 67.3372 14.7221C67.3372 9.31173 62.9179 4.92578 57.4664 4.92578C52.015 4.92578 47.5957 9.31173 47.5957 14.7221C47.5957 20.1324 52.015 24.5184 57.4664 24.5184Z" fill="#FFB8B8"/>
<path d="M64.6001 27.0596L66.5304 30.7314L79.8814 36.6381L76.3719 70.3445L74.8949 73.8349L75.6929 76.8661L73.7689 79.1031C75.7002 80.8375 75.9455 82.653 74.8949 84.531L68.7467 85.9287C68.7467 85.9287 34.5614 88.9456 37.4424 83.6896C40.5903 77.9466 41.3919 60.986 34.4426 51.9226C28.5428 44.228 33.0723 34.2435 33.0723 34.2435L47.0668 30.0928L52.2142 27.0596L64.6001 27.0596Z" fill="#3F3D56"/>
<path d="M61.8481 0.371988C61.8945 0.274587 61.9692 0.193169 62.0625 0.13819C62.1559 0.0832105 62.2637 0.0571799 62.372 0.0634423C57.853 -0.204833 53.0931 0.317897 49.3125 2.78939C48.3966 3.38816 47.5331 4.10234 46.5364 4.53669C46.4893 4.55767 46.4486 4.59037 46.418 4.63161C46.3875 4.67285 46.3682 4.72122 46.362 4.77204C46.3559 4.82286 46.3631 4.87439 46.3829 4.92163C46.4028 4.96887 46.4346 5.01021 46.4753 5.04165L46.5848 5.12684C46.628 5.16046 46.661 5.20518 46.6804 5.25615C46.6998 5.30712 46.7047 5.36239 46.6946 5.41594C46.6845 5.46948 46.6599 5.51927 46.6233 5.55987C46.5867 5.60047 46.5396 5.63033 46.4871 5.64622C46.4323 5.66277 46.3835 5.69451 46.3463 5.73769C46.3092 5.78086 46.2852 5.83368 46.2773 5.88991C46.2694 5.94615 46.2778 6.00346 46.3016 6.0551C46.3254 6.10674 46.3636 6.15055 46.4117 6.18137L47.2506 6.71948C47.2928 6.7461 47.3276 6.78283 47.3519 6.8263C47.3761 6.86976 47.3889 6.91857 47.3892 6.96824C47.3895 7.01791 47.3772 7.06685 47.3534 7.11057C47.3297 7.1543 47.2953 7.1914 47.2533 7.21848C47.1822 7.26204 47.1076 7.29959 47.0302 7.33074C46.9821 7.34869 46.9394 7.37866 46.9063 7.41774C46.8732 7.45683 46.8508 7.50372 46.8412 7.55389C46.8317 7.60406 46.8353 7.65583 46.8518 7.70419C46.8683 7.75256 46.8971 7.7959 46.9353 7.83003C47.2986 8.151 47.5773 8.55529 47.747 9.00765C48.0266 9.7292 48.0768 10.515 48.1241 11.2867C48.413 10.1733 49.6374 9.51788 50.7939 9.45128C51.9504 9.38468 53.0784 9.7634 54.2039 10.0356C56.6554 10.6269 59.2015 10.7241 61.6915 10.3215C60.8459 12.0055 61.5591 14.0142 62.2769 15.7557L64.6001 14.7674C67.7908 12.9799 65.5683 20.5414 64.3755 21.5794C66.8111 22.4174 73.1859 13.1161 71.1352 9.58794C70.0684 7.75262 70.8256 5.38551 68.7283 3.64484C67.7004 2.5709 65.6481 3.04823 64.6001 2.15565C64.1877 1.80435 64.8164 0.864493 64.2495 0.659667C64.0613 0.591635 61.8793 0.303421 61.8481 0.371988Z" fill="#2F2E41"/>
<path d="M45.1286 31.041C43.3174 39.0216 38.6718 57.6551 33.9587 61.552C33.6599 61.8321 33.3015 62.0421 32.91 62.1666C16.3434 66.172 11.0352 55.9549 11.0352 55.9549C11.0352 55.9549 15.4748 53.8077 15.5874 49.6107L24.5406 52.3677L32.3454 34.9363L33.4939 33.8731L33.5003 33.8667L45.1286 31.041Z" fill="#3F3D56"/>
<path d="M80.4511 104.738C80.9255 104.285 81.2941 103.735 81.531 103.126C81.7679 102.517 81.8674 101.863 81.8223 101.212C81.7772 100.56 81.5888 99.9263 81.2702 99.3549C80.9517 98.7835 80.5107 98.2883 79.9785 97.9043L84.6227 82.7139L76.6541 85.06L73.4656 99.1255C72.8749 100.056 72.6484 101.168 72.8292 102.253C73.01 103.338 73.5855 104.319 74.4465 105.011C75.3076 105.703 76.3944 106.057 77.5011 106.007C78.6078 105.956 79.6575 105.505 80.4511 104.738Z" fill="#FFB8B8"/>
<path d="M76.2005 35.7891L79.8815 36.6389C79.8815 36.6389 95.0959 66.0176 91.4297 71.6155C87.7634 77.2134 83.2719 95.7465 83.2719 95.7465C83.2719 95.7465 76.6289 94.4359 74.0907 91.0771L78.7387 69.0965L73.9443 50.6235L76.2005 35.7891Z" fill="#3F3D56"/>
<path d="M6.36622 79.4156L6.49839 32.0993C6.50216 31.1416 6.88854 30.2245 7.57276 29.5492C8.25698 28.8739 9.18317 28.4955 10.1481 28.4971L46.154 28.5961C47.1189 28.5999 48.043 28.9834 48.7234 29.6624C49.4039 30.3415 49.7851 31.2607 49.7835 32.2184L49.6513 79.5347C49.6476 80.4923 49.2612 81.4094 48.577 82.0847C47.8928 82.7601 46.9666 83.1384 46.0016 83.1369L9.99577 83.0378C9.03081 83.034 8.10675 82.6506 7.42631 81.9715C6.74588 81.2925 6.36463 80.3733 6.36622 79.4156Z" fill="#E6E6E6"/>
<path d="M9 76.7309L9.11569 35.1644C9.11899 34.3231 9.45715 33.5175 10.056 32.9243C10.6549 32.331 11.4655 31.9986 12.31 32L43.8233 32.087C44.6679 32.0903 45.4767 32.4272 46.0722 33.0237C46.6677 33.6203 47.0014 34.4278 47 35.2691L46.8843 76.8355C46.881 77.6768 46.5429 78.4825 45.944 79.0757C45.3452 79.669 44.5345 80.0014 43.69 80L12.1767 79.913C11.3321 79.9097 10.5234 79.5728 9.92783 78.9763C9.33229 78.3797 8.99862 77.5722 9 76.7309Z" fill="white"/>
<path d="M25.8342 17.4816C27.3444 17.4816 28.5687 16.2665 28.5687 14.7676C28.5687 13.2688 27.3444 12.0537 25.8342 12.0537C24.3239 12.0537 23.0996 13.2688 23.0996 14.7676C23.0996 16.2665 24.3239 17.4816 25.8342 17.4816Z" fill="#F2F2F2"/>
<path d="M15.8605 95.547C17.3708 95.547 18.5951 94.3319 18.5951 92.8331C18.5951 91.3342 17.3708 90.1191 15.8605 90.1191C14.3503 90.1191 13.126 91.3342 13.126 92.8331C13.126 94.3319 14.3503 95.547 15.8605 95.547Z" fill="#F2F2F2"/>
<path d="M78.756 28.0177C80.2663 28.0177 81.4906 26.8026 81.4906 25.3038C81.4906 23.8049 80.2663 22.5898 78.756 22.5898C77.2458 22.5898 76.0215 23.8049 76.0215 25.3038C76.0215 26.8026 77.2458 28.0177 78.756 28.0177Z" fill="#F2F2F2"/>
<rect x="12" y="37" width="32" height="16" rx="2" fill="#F2F4F7"/>
<rect x="12" y="56" width="32" height="16" rx="2" fill="#F2F4F7"/>
<rect x="14" y="39" width="12" height="12" rx="2" fill="#9DA3B6"/>
<rect x="14" y="58" width="12" height="12" rx="2" fill="#9DA3B6"/>
<rect x="28" y="41" width="14" height="1" rx="0.5" fill="#2F2E41"/>
<rect x="28" y="60" width="14" height="1" rx="0.5" fill="#2F2E41"/>
<path d="M28 44.5C28 44.2239 28.2239 44 28.5 44H37.5C37.7761 44 38 44.2239 38 44.5C38 44.7761 37.7761 45 37.5 45H28.5C28.2239 45 28 44.7761 28 44.5Z" fill="#2F2E41"/>
<path d="M28 63.5C28 63.2239 28.2239 63 28.5 63H37.5C37.7761 63 38 63.2239 38 63.5C38 63.7761 37.7761 64 37.5 64H28.5C28.2239 64 28 63.7761 28 63.5Z" fill="#2F2E41"/>
<rect x="28" y="47" width="7" height="1" rx="0.5" fill="#3F3D56"/>
<rect x="28" y="66" width="7" height="1" rx="0.5" fill="#3F3D56"/>
</g>
<defs>
<clipPath id="clip0_4813_5495">
<rect width="92" height="110" fill="white"/>
</clipPath>
</defs>
</svg>
