<svg xmlns="http://www.w3.org/2000/svg" version="1.1" xmlns:xlink="http://www.w3.org/1999/xlink" xmlns:svgjs="http://svgjs.dev/svgjs" width="1000" height="348" viewBox="0 0 1000 348"><g transform="matrix(1,0,0,1,-0.6060606060606233,0.34167919428742266)"><svg viewBox="0 0 396 138" data-background-color="#ffffff" preserveAspectRatio="xMidYMid meet" height="348" width="1000" xmlns="http://www.w3.org/2000/svg" xmlns:xlink="http://www.w3.org/1999/xlink"><g id="tight-bounds" transform="matrix(1,0,0,1,0.2400000000000091,-0.13549347359673902)"><svg viewBox="0 0 395.52 138.27098694719345" height="138.27098694719345" width="395.52"><g><svg viewBox="0 0 395.52 138.27098694719345" height="138.27098694719345" width="395.52"><g><svg viewBox="0 0 395.52 138.27098694719345" height="138.27098694719345" width="395.52"><g id="textblocktransform"><svg viewBox="0 0 395.52 138.27098694719345" height="138.27098694719345" width="395.52" id="textblock"><g><svg viewBox="0 0 395.52 90.99786695986806" height="90.99786695986806" width="395.52"><g transform="matrix(1,0,0,1,0,0)"><svg width="395.52" viewBox="3 -32.05 181.88 41.849999999999994" height="90.99786695986806" data-palette-color="#e83d95"><g class="wordmark-text-0" data-fill-palette-color="primary" id="text-0"><path d="M9.6 0L3.5 0 3.5-27.7 3-31.7 9.6-31.7 9.6 0ZM19.15-25.55L19.15-25.55Q17.3-25.55 16.45-26.3 15.6-27.05 15.6-28.8L15.6-28.8Q15.6-30.6 16.42-31.33 17.25-32.05 19.15-32.05L19.15-32.05Q21.05-32.05 21.9-31.33 22.75-30.6 22.75-28.8L22.75-28.8Q22.75-27.1 21.9-26.33 21.05-25.55 19.15-25.55ZM22.2 0L16.1 0 16.1-22.4 22.2-22.4 22.2 0ZM35.34 0L29.25 0 29.25-27.7 28.75-31.7 35.34-31.7 35.34 0ZM44.79 9.8L43.44 9.8Q41.04 9.8 39.04 9.25 37.04 8.7 36.34 8.25L36.34 8.25 37.84 3.75Q38.69 4.1 40.27 4.58 41.84 5.05 43.84 5.05L43.84 5.05 44.39 5.05Q46.69 5.05 48.47 3.68 50.24 2.3 51.19 0L51.19 0 48.69 0 38.89-22.4 45.89-22.4 51.64-8.6 52.94-5 53.44-5 54.74-8.6 60.59-22.4 67.39-22.4 66.59-19.35Q65.64-17.4 64.42-14.88 63.19-12.35 61.89-9.65 60.59-6.95 59.37-4.45 58.14-1.95 57.19 0L57.19 0Q55.74 3 54.02 5.2 52.29 7.4 50.07 8.6 47.84 9.8 44.79 9.8L44.79 9.8ZM87.89-11L71.89-11 71.89-16.8 87.89-16.8 87.89-11ZM103.49 0L100.99 0Q98.49 0 97.14-0.65 95.79-1.3 95.21-2.3 94.64-3.3 94.51-4.4 94.39-5.5 94.39-6.4L94.39-6.4 94.39-16Q94.39-16.75 94.51-17.82 94.64-18.9 95.21-19.95 95.79-21 97.16-21.7 98.54-22.4 100.99-22.4L100.99-22.4 103.54-22.4Q108.14-22.4 110.96-22.23 113.79-22.05 115.29-21.85L115.29-21.85 115.29-31.7 121.39-31.7 121.39 0 117.29 0 115.34-1Q113.24-0.65 110.29-0.33 107.34 0 103.49 0L103.49 0ZM102.89-4.3L102.89-4.3 113.74-4.3Q114.79-4.3 115.04-4.55 115.29-4.8 115.29-5.8L115.29-5.8 115.29-17.75Q113.59-17.85 110.99-17.98 108.39-18.1 105.44-18.1L105.44-18.1 102.89-18.1Q100.49-18.1 100.49-16.1L100.49-16.1 100.49-6.3Q100.49-4.3 102.89-4.3ZM144.03 0L133.99 0Q131.49 0 130.13-0.65 128.78-1.3 128.21-2.3 127.64-3.3 127.51-4.4 127.39-5.5 127.39-6.4L127.39-6.4 127.39-16Q127.39-16.75 127.51-17.82 127.64-18.9 128.21-19.95 128.78-21 130.16-21.7 131.53-22.4 133.99-22.4L133.99-22.4 144.74-22.4Q148.03-22.4 149.91-21.78 151.78-21.15 152.56-19.75 153.34-18.35 153.34-16L153.34-16 153.34-8.6 144.59-8.6Q140.09-8.6 137.26-8.8 134.44-9 133.49-9.05L133.49-9.05 133.49-6.3Q133.44-4.3 135.88-4.3L135.88-4.3 138.44-4.3Q141.13-4.3 143.71-4.38 146.28-4.45 148.44-4.58 150.59-4.7 151.88-4.8L151.88-4.8 153.88-1.55Q153.88 0 144.03 0L144.03 0ZM133.49-16.1L133.49-12.9 147.24-12.9 147.24-16.1Q147.24-17.1 147.01-17.5 146.78-17.9 145.69-18 144.59-18.1 141.94-18.1L141.94-18.1 135.88-18.1Q133.49-18.1 133.49-16.1L133.49-16.1ZM174.68 0L166.68 0 156.38-22.4 163.38-22.4 169.13-8.6 170.43-5 170.93-5 172.23-8.6 178.08-22.4 184.88-22.4 184.08-19.35 174.68 0Z" fill="#ffffff" data-fill-palette-color="primary"></path></g></svg></g></svg></g><g transform="matrix(1,0,0,1,75.54432,112.48027940028588)"><svg viewBox="0 0 244.43135999999998 25.790707546907573" height="25.790707546907573" width="244.43135999999998"><g transform="matrix(1,0,0,1,0,0)"><svg width="244.43135999999998" viewBox="1.5 -35.7 431.66 45.550000000000004" height="25.790707546907573" data-palette-color="#a62a6c"><path d="M15.75-35.35L15.75-35.35 15.75-31.75Q14.55-32.15 13.45-32.15L13.45-32.15Q11.85-32.15 10.83-31.05 9.8-29.95 9.8-27.65L9.8-27.65 9.8-25.35 15.4-25.35 15.4-22.15 9.8-22.15 9.8 0 5.85 0 5.85-22.15 1.5-22.15 1.5-25.35 5.85-25.35 5.85-27.7Q5.85-31.4 7.83-33.55 9.8-35.7 13.3-35.7L13.3-35.7Q14.5-35.7 15.75-35.35ZM20.1-25.35L24-25.35 24-20.9Q26-25.6 30.9-25.6L30.9-25.6Q31.8-25.6 32.3-25.5L32.3-25.5 32.3-21.6Q31.25-21.95 30.15-21.95L30.15-21.95Q27.5-21.95 25.75-19.5 24-17.05 24-13.85L24-13.85 24 0 20.05 0 20.1-25.35ZM46.7 0.45L46.7 0.45Q41.25 0.45 38.07-3.23 34.9-6.9 34.9-12.5L34.9-12.5Q34.9-18.15 38.17-21.93 41.45-25.7 46.7-25.7L46.7-25.7Q52.45-25.7 55.57-22 58.7-18.3 58.7-12.6L58.7-12.6Q58.7-6.95 55.5-3.25 52.3 0.45 46.7 0.45ZM46.7-22.2L46.7-22.2Q43.1-22.2 41.05-19.4 39-16.6 39-12.55L39-12.55Q39-8.6 41.1-5.83 43.2-3.05 46.7-3.05L46.7-3.05Q50.5-3.05 52.55-5.78 54.6-8.5 54.6-12.55L54.6-12.55Q54.6-16.75 52.65-19.48 50.7-22.2 46.7-22.2ZM64.49-25.35L68.39-25.35 68.39-20.95Q70.64-25.7 76.39-25.7L76.39-25.7Q80.09-25.7 82.29-23.45 84.49-21.2 84.49-17.45L84.49-17.45 84.49 0 80.54 0 80.54-16.4Q80.54-19.2 79.12-20.68 77.69-22.15 75.39-22.15L75.39-22.15Q72.54-22.15 70.47-19.95 68.39-17.75 68.39-13.85L68.39-13.85 68.39 0 64.49 0 64.49-25.35ZM103.94-22.15L96.94-22.15 96.94-7.3Q96.94-3.25 100.74-3.25L100.74-3.25Q102.69-3.25 104.19-4.4L104.19-4.4 104.19-0.65Q102.54 0.25 100.49 0.25L100.49 0.25Q92.99 0.25 92.99-7.4L92.99-7.4 92.99-22.15 88.94-22.15 88.94-25.35 92.99-25.35 92.99-31.65 96.94-31.65 96.94-25.35 103.94-25.35 103.94-22.15ZM120.84-11.7L109.14-11.7 109.14-15.15 120.84-15.15 120.84-11.7ZM129.89-14.3L143.49-14.3 143.49-15.3Q143.49-18.45 141.79-20.33 140.09-22.2 137.09-22.2L137.09-22.2Q134.24-22.2 132.24-20.15 130.24-18.1 129.89-14.3L129.89-14.3ZM145.84-5L145.84-5 145.84-1.3Q142.89 0.25 138.64 0.25L138.64 0.25Q132.89 0.25 129.36-3.28 125.84-6.8 125.84-12.6L125.84-12.6Q125.84-18.65 128.99-22.15 132.14-25.65 137.09-25.65L137.09-25.65Q141.84-25.65 144.64-22.6 147.44-19.55 147.44-13.95L147.44-13.95Q147.44-12.35 147.19-11L147.19-11 129.89-11Q130.34-7.25 132.74-5.25 135.14-3.25 139.04-3.25L139.04-3.25Q143.29-3.25 145.84-5ZM153.43-25.35L157.33-25.35 157.33-20.95Q159.58-25.7 165.33-25.7L165.33-25.7Q169.03-25.7 171.23-23.45 173.43-21.2 173.43-17.45L173.43-17.45 173.43 0 169.48 0 169.48-16.4Q169.48-19.2 168.06-20.68 166.63-22.15 164.33-22.15L164.33-22.15Q161.48-22.15 159.41-19.95 157.33-17.75 157.33-13.85L157.33-13.85 157.33 0 153.43 0 153.43-25.35ZM190.08-3.2L190.08-3.2Q193.18-3.2 195.36-5.5 197.53-7.8 197.53-12.85L197.53-12.85Q197.53-17.65 195.28-19.9 193.03-22.15 190.33-22.15L190.33-22.15Q187.18-22.15 185.11-19.63 183.03-17.1 183.03-12.4L183.03-12.4Q183.03-8.3 185.03-5.75 187.03-3.2 190.08-3.2ZM197.53-21.5L197.53-35.35 201.48-35.35 201.48 0 197.53 0 197.53-3.75Q194.83 0.4 189.73 0.4L189.73 0.4Q184.68 0.4 181.81-3.35 178.93-7.1 178.93-12.45L178.93-12.45Q178.93-18.4 181.98-22.08 185.03-25.75 189.83-25.75L189.83-25.75Q194.78-25.75 197.53-21.5L197.53-21.5ZM230.63-3.2L230.63-3.2Q233.73-3.2 235.9-5.5 238.08-7.8 238.08-12.85L238.08-12.85Q238.08-17.65 235.83-19.9 233.58-22.15 230.88-22.15L230.88-22.15Q227.73-22.15 225.65-19.63 223.58-17.1 223.58-12.4L223.58-12.4Q223.58-8.3 225.58-5.75 227.58-3.2 230.63-3.2ZM238.08-21.5L238.08-35.35 242.03-35.35 242.03 0 238.08 0 238.08-3.75Q235.38 0.4 230.28 0.4L230.28 0.4Q225.23 0.4 222.35-3.35 219.48-7.1 219.48-12.45L219.48-12.45Q219.48-18.4 222.53-22.08 225.58-25.75 230.38-25.75L230.38-25.75Q235.33-25.75 238.08-21.5L238.08-21.5ZM251.87-14.3L265.47-14.3 265.47-15.3Q265.47-18.45 263.77-20.33 262.07-22.2 259.07-22.2L259.07-22.2Q256.22-22.2 254.22-20.15 252.22-18.1 251.87-14.3L251.87-14.3ZM267.82-5L267.82-5 267.82-1.3Q264.87 0.25 260.62 0.25L260.62 0.25Q254.87 0.25 251.35-3.28 247.82-6.8 247.82-12.6L247.82-12.6Q247.82-18.65 250.97-22.15 254.12-25.65 259.07-25.65L259.07-25.65Q263.82-25.65 266.62-22.6 269.42-19.55 269.42-13.95L269.42-13.95Q269.42-12.35 269.17-11L269.17-11 251.87-11Q252.32-7.25 254.72-5.25 257.12-3.25 261.02-3.25L261.02-3.25Q265.27-3.25 267.82-5ZM286.72 0L281.87 0 273.02-25.35 277.12-25.35 280.62-14.65 284.32-3.1Q284.77-5.25 288.07-14.65L288.07-14.65 291.67-25.35 295.77-25.35 286.72 0ZM303.22-14.3L316.82-14.3 316.82-15.3Q316.82-18.45 315.12-20.33 313.42-22.2 310.42-22.2L310.42-22.2Q307.57-22.2 305.57-20.15 303.57-18.1 303.22-14.3L303.22-14.3ZM319.17-5L319.17-5 319.17-1.3Q316.22 0.25 311.97 0.25L311.97 0.25Q306.22 0.25 302.69-3.28 299.17-6.8 299.17-12.6L299.17-12.6Q299.17-18.65 302.32-22.15 305.47-25.65 310.42-25.65L310.42-25.65Q315.17-25.65 317.97-22.6 320.77-19.55 320.77-13.95L320.77-13.95Q320.77-12.35 320.52-11L320.52-11 303.22-11Q303.67-7.25 306.07-5.25 308.47-3.25 312.37-3.25L312.37-3.25Q316.62-3.25 319.17-5ZM330.92 0L326.97 0 326.97-35.35 330.92-35.35 330.92 0ZM348.71 0.45L348.71 0.45Q343.26 0.45 340.09-3.23 336.91-6.9 336.91-12.5L336.91-12.5Q336.91-18.15 340.19-21.93 343.46-25.7 348.71-25.7L348.71-25.7Q354.46-25.7 357.59-22 360.71-18.3 360.71-12.6L360.71-12.6Q360.71-6.95 357.51-3.25 354.31 0.45 348.71 0.45ZM348.71-22.2L348.71-22.2Q345.11-22.2 343.06-19.4 341.01-16.6 341.01-12.55L341.01-12.55Q341.01-8.6 343.11-5.83 345.21-3.05 348.71-3.05L348.71-3.05Q352.51-3.05 354.56-5.78 356.61-8.5 356.61-12.55L356.61-12.55Q356.61-16.75 354.66-19.48 352.71-22.2 348.71-22.2ZM377.66-3.2L377.66-3.2Q380.86-3.2 382.91-5.73 384.96-8.25 384.96-12.9L384.96-12.9Q384.96-17.05 382.96-19.6 380.96-22.15 377.91-22.15 374.86-22.15 372.64-19.93 370.41-17.7 370.41-12.65L370.41-12.65Q370.41-7.8 372.66-5.5 374.91-3.2 377.66-3.2ZM366.51-25.35L370.41-25.35 370.41-21.5Q373.06-25.75 378.26-25.75L378.26-25.75Q383.31-25.75 386.19-22.08 389.06-18.4 389.06-12.9L389.06-12.9Q389.06-7.05 386.04-3.33 383.01 0.4 378.16 0.4L378.16 0.4Q373.16 0.4 370.41-3.85L370.41-3.85 370.41 9.85 366.51 9.85 366.51-25.35ZM397.41-14.3L411.01-14.3 411.01-15.3Q411.01-18.45 409.31-20.33 407.61-22.2 404.61-22.2L404.61-22.2Q401.76-22.2 399.76-20.15 397.76-18.1 397.41-14.3L397.41-14.3ZM413.36-5L413.36-5 413.36-1.3Q410.41 0.25 406.16 0.25L406.16 0.25Q400.41 0.25 396.88-3.28 393.36-6.8 393.36-12.6L393.36-12.6Q393.36-18.65 396.51-22.15 399.66-25.65 404.61-25.65L404.61-25.65Q409.36-25.65 412.16-22.6 414.96-19.55 414.96-13.95L414.96-13.95Q414.96-12.35 414.71-11L414.71-11 397.41-11Q397.86-7.25 400.26-5.25 402.66-3.25 406.56-3.25L406.56-3.25Q410.81-3.25 413.36-5ZM420.96-25.35L424.86-25.35 424.86-20.9Q426.86-25.6 431.76-25.6L431.76-25.6Q432.66-25.6 433.16-25.5L433.16-25.5 433.16-21.6Q432.11-21.95 431.01-21.95L431.01-21.95Q428.36-21.95 426.61-19.5 424.86-17.05 424.86-13.85L424.86-13.85 424.86 0 420.91 0 420.96-25.35Z" opacity="1" transform="matrix(1,0,0,1,0,0)" fill="#ffffff" class="slogan-text-1" data-fill-palette-color="secondary" id="text-1"></path></svg></g></svg></g></svg></g></svg></g><g></g></svg></g><defs></defs></svg><rect width="395.52" height="138.27098694719345" fill="none" stroke="none" visibility="hidden"></rect></g></svg></g></svg>