<?xml version="1.0" standalone="no"?>
<!DOCTYPE svg PUBLIC "-//W3C//DTD SVG 20010904//EN"
 "http://www.w3.org/TR/2001/REC-SVG-20010904/DTD/svg10.dtd">
<svg version="1.0" xmlns="http://www.w3.org/2000/svg"
 width="2000.000000pt" height="2000.000000pt" viewBox="0 0 2000.000000 2000.000000"
 preserveAspectRatio="xMidYMid meet">

<g transform="translate(0.000000,2000.000000) scale(0.100000,-0.100000)"
fill="#000000" stroke="none">
<path d="M9009 15424 c-4 -6 -173 -433 -375 -950 -201 -516 -417 -1069 -479
-1229 -413 -1058 -1247 -3189 -1454 -3715 l-179 -455 64 -62 c35 -35 68 -63
73 -63 9 0 41 77 117 282 l29 78 1530 2 1530 3 42 79 c24 44 43 81 43 83 0 2
-696 3 -1546 3 -1233 0 -1545 3 -1541 13 29 72 339 865 500 1277 298 764 1323
3403 1355 3489 8 21 25 -15 120 -255 261 -659 1027 -2627 1363 -3501 68 -178
126 -323 129 -323 3 0 63 103 134 228 72 125 181 312 243 416 62 103 113 190
113 192 0 2 -77 205 -171 451 -94 247 -470 1233 -835 2192 -366 960 -669 1751
-673 1759 -10 17 -118 22 -132 6z"/>
<path d="M15830 15113 c-92 -5 -329 -33 -446 -54 -314 -54 -663 -172 -979
-331 -275 -138 -461 -256 -722 -460 -84 -65 -155 -118 -158 -118 -3 0 -42 27
-86 61 -216 164 -546 329 -869 436 -303 99 -608 160 -1025 205 -165 18 -998
18 -1195 0 -280 -25 -790 -99 -808 -116 -7 -8 49 -156 59 -156 5 0 90 13 190
30 201 33 481 66 634 75 55 3 116 8 135 11 61 10 710 5 860 -6 778 -58 1407
-257 1893 -597 43 -30 77 -58 75 -63 -2 -4 -75 -72 -163 -150 -612 -547 -1267
-1337 -1890 -2280 -433 -657 -801 -1291 -1450 -2505 -65 -121 -165 -308 -223
-415 -57 -107 -119 -222 -137 -255 -804 -1497 -1293 -2223 -1886 -2800 -580
-565 -1120 -837 -1826 -920 -149 -17 -427 -20 -540 -4 -395 53 -776 279 -976
579 -21 30 -37 58 -37 62 0 5 585 8 1300 8 l1300 0 0 65 0 65 -57 0 c-126 1
-311 37 -418 83 -163 69 -300 191 -385 341 -39 71 -79 183 -102 288 -31 145
-31 424 1 618 48 299 121 534 307 982 207 500 306 751 297 758 -31 27 -135
100 -141 100 -4 0 -58 -132 -121 -293 -204 -524 -517 -1308 -591 -1482 -372
-876 -734 -1257 -1295 -1369 -44 -8 -100 -17 -124 -18 -42 -3 -44 -2 -57 34
-23 68 -34 213 -23 324 17 183 71 362 206 684 94 224 115 286 120 365 4 62 2
74 -19 105 -71 106 -238 86 -353 -42 -56 -62 -136 -224 -169 -338 -97 -345
-85 -767 30 -1075 42 -110 149 -313 206 -390 73 -99 248 -269 353 -344 166
-117 396 -215 618 -263 90 -19 132 -22 367 -22 292 -1 403 10 654 65 265 58
486 139 775 283 526 263 878 522 1356 1001 899 899 1663 2054 2771 4188 l67
127 91 0 c82 0 203 -9 341 -25 125 -15 361 -70 513 -120 272 -90 551 -240 742
-398 194 -161 391 -426 520 -700 164 -349 255 -807 249 -1262 -8 -587 -140
-1139 -391 -1629 l-55 -106 56 -53 c31 -30 85 -75 121 -101 62 -46 208 -126
230 -126 6 0 35 38 65 85 304 471 470 1024 479 1595 6 355 -37 652 -140 971
-147 456 -379 843 -699 1165 -178 179 -299 279 -503 414 -241 161 -462 264
-736 345 -110 33 -112 36 -36 50 31 6 136 30 525 122 391 92 808 278 1082 482
327 243 601 615 721 977 161 485 122 987 -113 1456 -91 181 -277 435 -462 628
l-72 76 32 25 c612 488 1190 754 1857 853 62 9 271 26 404 32 118 6 131 8 153
30 25 26 31 78 10 105 -30 39 -63 43 -287 32z m-2144 -1355 c166 -181 298
-471 345 -763 18 -111 16 -367 -5 -490 -52 -316 -174 -608 -371 -891 -245
-351 -610 -682 -975 -885 -168 -93 -386 -184 -523 -219 -230 -57 -534 -102
-796 -116 l-124 -7 108 209 c192 373 463 886 550 1044 369 667 617 1063 912
1457 225 302 428 541 612 720 l105 102 50 -47 c28 -26 78 -77 112 -114z"/>
<path d="M8295 14342 c-794 -363 -1446 -902 -1907 -1577 -386 -564 -627 -1215
-688 -1860 -15 -158 -12 -529 5 -676 71 -611 321 -1129 696 -1445 274 -231
554 -358 904 -409 147 -21 464 -21 611 0 466 69 874 287 1195 640 77 84 139
160 139 169 0 3 -47 6 -104 6 l-104 0 -134 -133 c-157 -156 -273 -241 -458
-336 -224 -113 -392 -160 -675 -187 -192 -19 -360 -11 -544 26 -565 114 -1003
511 -1225 1113 -115 310 -171 723 -147 1079 36 529 158 974 401 1458 352 704
915 1298 1647 1739 96 57 406 218 464 239 21 8 33 29 62 104 19 51 39 101 42
111 4 9 3 17 -1 17 -5 -1 -85 -36 -179 -78z"/>
<path d="M9767 10774 c-30 -16 -40 -43 -62 -159 -49 -262 -189 -655 -321 -902
l-54 -103 98 0 99 0 56 118 c73 154 116 258 171 422 59 174 126 436 133 521 5
59 3 68 -16 86 -28 26 -72 33 -104 17z"/>
<path d="M11151 9958 c-53 -100 -110 -209 -161 -303 -21 -38 -59 -110 -85
-160 -26 -49 -76 -143 -111 -207 -35 -64 -64 -123 -64 -131 0 -7 156 -413 346
-903 620 -1593 680 -1762 725 -2022 56 -331 -12 -549 -207 -654 -103 -56 -306
-98 -471 -98 l-73 0 0 -65 0 -65 1435 0 1435 0 0 65 0 65 -44 0 c-71 0 -192
20 -281 45 -271 79 -508 264 -725 565 -217 301 -446 778 -771 1606 -101 258
-749 1936 -898 2327 -5 14 -17 -2 -50 -65z"/>
<path d="M10513 7975 c-36 -15 -173 -162 -284 -305 -122 -156 -203 -285 -299
-475 -125 -247 -195 -448 -247 -715 -25 -126 -27 -153 -27 -415 0 -267 1 -286
26 -406 73 -339 202 -585 418 -799 200 -198 410 -305 703 -356 88 -15 526 -22
643 -9 197 20 264 29 374 51 412 79 812 254 1138 498 100 75 202 163 202 174
0 4 -137 6 -305 4 l-306 -3 -82 -66 c-393 -318 -986 -522 -1451 -500 -343 16
-616 132 -824 351 -457 481 -504 1330 -116 2106 120 239 249 425 454 650 84
93 100 115 100 143 0 58 -61 96 -117 72z"/>
</g>
</svg>
